<?xml version="1.0" standalone="no"?>
<!DOCTYPE svg PUBLIC "-//W3C//DTD SVG 20010904//EN"
 "http://www.w3.org/TR/2001/REC-SVG-20010904/DTD/svg10.dtd">
<svg version="1.0" xmlns="http://www.w3.org/2000/svg"
 width="200.000000pt" height="200.000000pt" viewBox="0 0 200.000000 200.000000"
 preserveAspectRatio="xMidYMid meet">
<metadata>
Created by potrace 1.11, written by Peter Selinger 2001-2013
</metadata>
<g transform="translate(0.000000,200.000000) scale(0.100000,-0.100000)"
fill="#000000" stroke="none">
<path d="M920 1846 c0 -2 8 -10 18 -17 15 -13 16 -12 3 4 -13 16 -21 21 -21
13z"/>
<path d="M995 1822 c3 -3 0 -10 -5 -17 -7 -8 -5 -12 5 -12 8 0 13 3 10 5 -3 3
0 10 5 17 7 8 5 12 -5 12 -8 0 -13 -3 -10 -5z"/>
<path d="M826 1805 c-11 -8 -15 -15 -9 -15 6 0 16 7 23 15 16 19 11 19 -14 0z"/>
<path d="M860 1811 c0 -6 4 -13 10 -16 6 -3 7 1 4 9 -7 18 -14 21 -14 7z"/>
<path d="M1033 1805 c0 -8 4 -12 9 -9 5 3 6 10 3 15 -9 13 -12 11 -12 -6z"/>
<path d="M916 1802 c-2 -4 9 -8 25 -8 33 -2 33 4 1 11 -12 2 -24 1 -26 -3z"/>
<path d="M1175 1791 c-3 -5 -2 -12 3 -15 5 -3 9 1 9 9 0 17 -3 19 -12 6z"/>
<path d="M775 1780 c-3 -5 -1 -10 4 -10 6 0 11 5 11 10 0 6 -2 10 -4 10 -3 0
-8 -4 -11 -10z"/>
<path d="M841 1763 c7 -10 15 -20 16 -22 2 -2 3 3 3 11 0 9 -7 19 -16 22 -15
6 -15 4 -3 -11z"/>
<path d="M913 1750 c-1 -11 2 -20 7 -20 4 0 7 7 6 15 -3 23 -12 26 -13 5z"/>
<path d="M788 1753 c6 -2 18 -2 25 0 6 3 1 5 -13 5 -14 0 -19 -2 -12 -5z"/>
<path d="M918 1694 c-27 -38 -48 -63 -48 -56 0 7 -4 12 -9 12 -6 0 -8 -9 -6
-20 2 -11 1 -20 -3 -20 -4 0 -23 -14 -42 -30 -35 -30 -94 -56 -117 -52 -7 2
-13 -2 -13 -8 0 -6 -4 -9 -9 -6 -5 3 -14 -1 -21 -9 -24 -29 -123 -4 -104 27
10 15 23 8 18 -9 -5 -15 -4 -16 5 -3 7 10 11 11 11 3 0 -7 4 -13 10 -13 5 0 7
8 4 18 -5 16 -5 16 9 -1 14 -17 15 -17 13 7 -1 19 -4 22 -18 15 -23 -13 -28
-11 -22 6 4 8 10 12 15 9 5 -3 6 3 2 13 -6 15 -4 16 9 5 14 -11 17 -10 23 8 3
11 10 18 15 15 4 -3 14 2 21 11 12 14 14 14 26 -2 7 -10 13 -14 13 -9 0 4 -12
24 -26 43 -23 29 -24 33 -8 28 13 -4 23 1 32 14 7 11 8 20 3 20 -5 0 -11 -7
-15 -15 -3 -8 -12 -12 -20 -9 -8 3 -20 -4 -28 -15 -8 -12 -17 -19 -20 -16 -2
3 -5 -2 -5 -10 0 -22 15 -18 22 5 6 17 8 18 21 6 18 -19 18 -30 0 -23 -10 4
-13 1 -10 -7 7 -19 -34 -15 -46 4 -5 8 -10 10 -10 4 0 -6 7 -17 15 -24 9 -7
13 -15 10 -18 -3 -3 -14 3 -24 13 -20 17 -20 17 -16 -8 4 -20 1 -25 -12 -23
-10 2 -12 1 -5 -1 22 -8 13 -25 -10 -18 -18 5 -20 4 -8 -4 13 -10 8 -15 -12
-12 -4 0 -12 -8 -18 -19 -6 -11 -7 -20 -3 -20 4 0 1 -5 -7 -10 -12 -7 -12 -12
-2 -22 15 -15 16 -38 1 -38 -5 0 -8 4 -4 9 8 15 -12 22 -22 8 -4 -6 -8 -21 -8
-32 0 -11 -4 -23 -9 -27 -13 -9 -17 -40 -4 -32 7 5 9 -2 4 -20 -4 -18 -3 -25
4 -21 5 3 10 13 10 21 0 8 6 14 14 14 7 0 19 7 26 16 17 19 56 41 46 25 -4 -6
-2 -11 4 -11 7 0 10 -7 7 -14 -4 -10 -1 -13 9 -9 10 4 12 0 7 -13 -4 -11 -3
-15 4 -11 12 8 36 -17 26 -26 -3 -4 2 -7 13 -7 15 0 16 -2 4 -9 -8 -6 -18 -7
-24 -4 -5 3 -6 1 -2 -5 4 -7 2 -12 -5 -12 -7 0 -10 -2 -7 -5 3 -3 17 0 32 6
21 10 29 10 39 -1 9 -10 9 -11 0 -6 -7 4 -22 1 -34 -7 -15 -11 -17 -16 -7 -20
8 -3 9 -6 1 -6 -19 -2 -65 60 -54 73 12 15 -3 41 -18 31 -7 -4 -19 -1 -27 6
-22 18 -30 2 -10 -20 10 -11 15 -24 11 -30 -3 -7 0 -8 9 -5 9 3 16 2 16 -3 0
-5 -9 -9 -21 -10 -13 -1 -19 3 -16 11 3 7 1 19 -5 27 -8 11 -9 10 -4 -3 3 -10
2 -18 -2 -19 -4 0 -15 -2 -25 -4 -19 -4 -42 29 -32 45 3 6 1 10 -4 10 -6 0
-11 -6 -12 -12 0 -7 -2 -21 -5 -30 -11 -45 -11 -54 0 -67 9 -12 8 -14 -4 -9
-22 8 -21 -99 0 -112 14 -9 7 -14 -13 -11 -5 1 -5 -4 -1 -11 4 -7 9 -28 10
-48 1 -19 3 -36 4 -37 1 -2 4 -12 5 -23 1 -11 4 -22 5 -25 1 -3 3 -11 4 -17 1
-7 10 -11 21 -10 11 2 17 1 13 -4 -4 -4 -3 -13 3 -21 13 -15 -2 -18 -17 -3 -7
7 -11 6 -11 -4 0 -8 5 -12 10 -9 6 4 8 0 4 -10 -3 -8 1 -21 8 -27 8 -7 12 -17
8 -23 -3 -5 -2 -7 3 -4 6 3 16 -4 23 -15 11 -18 11 -20 -4 -14 -15 5 -16 4 -5
-9 18 -21 30 -19 25 6 -2 12 0 19 7 17 6 -2 12 -16 14 -30 2 -21 -1 -26 -14
-21 -15 4 -15 3 -2 -6 8 -6 11 -11 6 -11 -12 0 14 -30 27 -30 6 0 2 6 -9 14
-18 14 -18 15 4 13 12 -1 22 -4 22 -8 0 -4 3 -15 6 -23 5 -13 2 -15 -12 -10
-16 6 -15 4 3 -13 13 -11 19 -23 15 -27 -4 -4 0 -6 8 -4 9 2 15 -4 15 -14 0
-9 3 -20 7 -23 3 -4 5 5 4 19 -4 29 5 33 23 12 9 -11 9 -15 -1 -19 -7 -2 -9
-8 -5 -13 9 -9 28 16 21 27 -2 4 2 10 8 13 7 3 4 4 -6 3 -10 -1 -21 3 -23 10
-3 7 5 10 24 7 20 -3 31 1 41 16 7 11 8 20 3 20 -5 0 -11 -7 -15 -15 -3 -8
-10 -15 -16 -15 -6 0 -8 5 -5 10 3 6 1 10 -4 10 -6 0 -11 -5 -11 -12 0 -6 -3
-8 -7 -5 -3 4 -14 0 -23 -8 -15 -14 -19 -14 -31 2 -12 14 -12 16 1 11 9 -3 25
2 35 11 22 19 30 41 15 41 -6 0 -10 -7 -10 -15 0 -20 -14 -19 -31 2 -12 15
-12 16 3 11 10 -4 19 -1 22 8 8 21 -4 43 -20 37 -10 -4 -12 0 -8 11 3 9 9 14
13 12 4 -3 7 4 7 14 0 14 -4 16 -17 9 -24 -13 -29 -11 -23 6 4 8 10 12 15 9 5
-3 6 3 2 13 -6 16 -5 16 10 4 11 -9 17 -10 17 -2 0 21 3 26 22 39 15 11 22 11
36 1 9 -7 14 -9 10 -5 -4 5 0 15 10 22 13 10 14 15 5 25 -6 6 -9 19 -6 28 3
12 2 13 -4 3 -7 -10 -13 -8 -27 7 -10 11 -24 17 -32 14 -8 -3 -14 0 -14 6 0 6
5 11 11 11 8 0 8 5 -1 15 -8 10 -9 15 -2 15 6 0 16 -8 21 -17 6 -10 10 -13 11
-8 0 20 -18 38 -33 32 -17 -7 -37 11 -37 32 1 13 3 13 11 -2 7 -11 17 -16 28
-12 13 4 26 -4 42 -25 13 -16 28 -30 34 -30 5 0 3 6 -3 12 -10 10 -8 16 10 30
13 9 20 19 16 23 -3 3 -15 -3 -25 -14 l-19 -20 -17 20 c-12 13 -24 18 -37 14
-15 -5 -20 -2 -20 10 0 11 -5 15 -15 11 -21 -8 -19 7 5 35 18 22 30 15 12 -7
-4 -5 -3 -6 2 -2 13 10 36 -2 36 -19 0 -8 4 -12 9 -8 5 3 13 -4 16 -16 7 -21
7 -21 28 -1 l22 20 24 -30 23 -29 -25 6 c-15 4 -28 2 -32 -6 -6 -9 -2 -11 14
-6 17 4 20 3 12 -7 -6 -7 -8 -16 -4 -19 3 -4 -5 -8 -18 -8 -18 -1 -19 -3 -6
-6 10 -3 25 1 34 9 14 11 15 10 10 -12 -4 -14 -4 -19 -1 -12 9 20 19 14 19
-12 0 -17 -5 -24 -17 -23 -10 1 -18 7 -18 13 0 7 -6 14 -13 17 -8 3 -14 -1
-14 -9 0 -8 3 -12 5 -9 3 3 12 -4 19 -15 20 -28 54 -11 45 22 -5 21 -3 20 19
-6 13 -15 32 -35 42 -44 9 -9 17 -22 17 -29 0 -7 3 -12 8 -12 20 3 25 -2 12
-12 -13 -9 -13 -10 2 -6 16 6 34 -18 20 -26 -4 -2 -2 -2 5 -1 15 4 35 -20 25
-31 -4 -5 -2 -5 4 -2 15 9 25 -17 13 -32 -6 -8 -5 -8 3 -1 17 14 31 12 22 -2
-4 -7 -4 -10 0 -6 12 10 49 -28 41 -41 -3 -7 -3 -11 2 -10 21 4 33 -2 33 -16
0 -8 6 -14 13 -12 6 1 11 -4 10 -10 -2 -7 0 -12 5 -11 4 1 17 -4 29 -12 20
-13 21 -16 8 -30 -13 -15 -13 -17 0 -17 8 0 12 4 9 8 -7 11 17 23 25 12 3 -5
29 -23 58 -38 28 -16 49 -34 46 -40 -4 -5 -3 -7 1 -3 4 3 30 -5 58 -19 27 -14
52 -23 54 -20 3 2 -14 12 -37 21 -37 15 -40 18 -27 34 12 16 11 16 -6 2 -16
-12 -20 -12 -30 0 -6 8 -18 16 -26 18 -8 2 -20 10 -26 17 -6 8 -14 12 -17 8
-4 -3 -7 -1 -7 5 0 7 -6 11 -12 9 -7 -1 -12 4 -10 11 1 8 -2 11 -7 8 -14 -9
-156 114 -156 135 0 5 -3 8 -6 7 -11 -5 -39 24 -32 35 3 6 1 7 -5 3 -11 -6
-16 5 -13 26 0 4 -7 4 -16 1 -12 -5 -15 -2 -10 10 3 9 3 16 -1 14 -7 -2 -12 6
-12 23 0 6 26 -15 58 -46 31 -32 56 -61 55 -66 -2 -4 0 -7 5 -7 20 3 25 -2 12
-12 -13 -9 -13 -10 2 -6 17 6 43 -15 32 -26 -5 -4 14 -3 34 2 1 1 -26 28 -60
62 -35 33 -62 65 -61 70 2 5 -3 8 -10 6 -6 -1 -11 5 -9 13 2 8 0 12 -4 7 -9
-9 -45 23 -38 34 3 5 1 9 -4 9 -5 0 -20 9 -33 21 -19 17 -21 22 -9 29 11 7 11
10 3 11 -23 3 -28 4 -41 12 -7 5 -9 13 -6 19 4 6 2 8 -3 5 -6 -4 -16 0 -23 8
-11 13 -10 15 6 10 10 -3 4 2 -13 10 -18 8 -33 20 -33 26 0 5 4 7 10 4 6 -3 7
1 4 10 -5 11 -2 14 12 9 16 -5 16 -4 4 5 -11 8 -18 7 -25 -3 -9 -11 -15 -10
-37 8 -14 11 -28 30 -30 41 -2 12 -11 19 -21 19 -14 -2 -15 1 -6 12 9 12 9 13
-4 8 -12 -4 -14 -1 -10 14 3 13 -3 25 -17 35 -26 18 -14 28 19 16 14 -6 21
-15 18 -24 -4 -8 -1 -12 6 -9 7 2 62 -48 122 -112 125 -133 139 -150 130 -164
-3 -6 1 -7 10 -4 17 7 47 -25 38 -40 -4 -5 -1 -6 4 -3 12 7 63 -36 63 -53 0
-5 3 -9 8 -8 4 2 22 -12 41 -30 19 -17 38 -32 44 -32 5 0 6 -7 3 -16 -3 -8 -2
-13 3 -9 16 9 42 -7 37 -22 -3 -8 -2 -11 4 -8 5 3 31 -10 57 -28 26 -19 84
-51 128 -73 44 -21 83 -43 87 -49 4 -6 8 -2 8 8 0 9 -6 17 -14 17 -8 0 -22 7
-30 16 -9 8 -16 13 -16 10 0 -8 -79 34 -86 45 -3 5 0 9 6 9 6 0 8 4 5 10 -3 5
-1 19 5 30 9 16 7 30 -6 60 l-17 39 -23 -26 c-14 -16 -28 -24 -38 -20 -25 10
-19 35 11 49 15 7 29 22 30 33 3 19 3 19 -5 1 -11 -26 -20 -4 -18 46 1 21 -2
34 -8 31 -5 -4 -7 2 -3 13 7 18 7 18 -8 0 -13 -17 -15 -17 -15 -4 0 17 -33 19
-57 5 -16 -10 -43 2 -43 19 0 21 28 28 47 13 14 -12 16 -12 8 0 -6 11 -2 13
21 8 29 -7 29 -7 7 9 -23 17 -33 41 -11 28 6 -4 8 -3 5 3 -4 6 -29 9 -57 7
-39 -3 -52 0 -57 12 -9 25 12 39 41 26 22 -10 26 -8 31 9 4 11 4 23 1 26 -3 4
0 13 6 22 10 13 10 14 -2 4 -19 -17 -54 -17 -44 0 6 8 3 8 -9 -2 -22 -18 -47
-7 -47 20 0 22 18 23 63 4 13 -5 17 -2 17 13 0 12 5 24 10 27 21 13 8 21 -37
24 -58 3 -76 16 -49 36 16 12 22 12 39 0 18 -13 23 -12 44 11 13 15 22 29 19
32 -4 3 -6 2 -6 -2 0 -3 -12 0 -27 7 -16 8 -33 12 -40 10 -16 -6 -25 14 -18
38 6 19 8 19 61 -11 52 -29 54 -29 54 -9 0 15 -5 19 -15 15 -19 -7 -19 4 0 31
14 20 14 22 -7 29 -13 4 -34 8 -47 8 -27 1 -35 14 -21 36 8 12 14 12 47 -5 21
-11 41 -21 46 -23 4 -2 7 5 7 16 0 11 6 23 13 25 9 4 9 6 -1 6 -7 1 -10 6 -7
11 4 6 8 32 10 58 2 26 5 54 7 61 3 14 -73 19 -104 6 -9 -4 -22 -4 -28 0 -6 4
-9 1 -8 -6 2 -7 -5 -15 -15 -17 -16 -3 -18 0 -12 20 5 18 4 20 -4 8 -9 -12
-11 -13 -11 -1 0 8 -3 11 -6 8 -10 -10 -45 34 -37 46 3 6 1 7 -6 3 -7 -5 -16
4 -23 26 -7 18 -11 36 -10 41 1 4 -2 7 -7 7 -5 0 -11 7 -13 16 -2 10 -20 -9
-50 -52z m36 -177 c34 -23 52 -80 36 -118 -17 -40 -60 -74 -72 -57 -6 10 -8 8
-8 -4 0 -22 -10 -22 -54 -4 -35 14 -69 53 -60 68 3 4 0 8 -7 8 -9 0 -9 3 0 14
16 19 23 58 9 50 -6 -4 -3 5 8 19 21 29 41 40 55 31 14 -8 11 -26 -3 -18 -7 4
-9 3 -5 -1 4 -5 14 -10 22 -11 11 -2 12 2 5 16 -6 10 -10 21 -10 23 0 10 62
-2 84 -16z m-419 -8 c-10 -15 -25 -10 -19 6 4 8 10 12 15 9 5 -3 7 -10 4 -15z
m19 -18 c4 -5 17 -8 31 -6 29 3 34 -11 7 -19 -10 -3 -26 -20 -36 -37 -10 -17
-20 -28 -24 -25 -3 3 -20 -5 -38 -19 -23 -18 -35 -22 -40 -13 -4 6 -3 9 2 6 5
-3 15 0 22 8 10 11 10 14 0 15 -11 0 -11 2 0 6 9 4 10 8 2 18 -8 9 -8 15 0 20
6 4 9 1 8 -6 -2 -8 8 -14 25 -14 31 -1 44 10 26 21 -8 5 -9 3 -4 -6 5 -9 4
-11 -4 -6 -6 4 -9 11 -6 16 3 4 -3 11 -13 15 -16 6 -16 7 2 21 23 16 33 18 40
5z m240 -46 c-4 -8 -8 -15 -10 -15 -2 0 -4 7 -4 15 0 8 4 15 10 15 5 0 7 -7 4
-15z m-229 -125 c3 -5 -1 -10 -10 -10 -9 0 -13 5 -10 10 3 6 8 10 10 10 2 0 7
-4 10 -10z m-110 -40 c4 -6 10 -8 15 -5 5 3 14 0 22 -7 7 -7 22 -20 32 -28 17
-14 18 -13 12 6 -9 30 21 27 41 -3 13 -20 14 -26 3 -36 -10 -9 -11 -9 -6 0 3
6 2 14 -4 18 -6 4 -8 11 -5 16 4 5 1 9 -5 9 -7 0 -9 -7 -6 -16 3 -8 2 -12 -4
-9 -6 3 -10 0 -10 -7 0 -8 -5 -6 -11 5 -6 9 -15 15 -20 12 -5 -4 -7 -11 -4
-16 8 -11 -6 -12 -23 0 -11 7 -10 9 3 15 25 9 7 27 -22 22 -14 -3 -28 -8 -32
-12 -3 -4 1 -5 10 -2 9 4 16 1 16 -7 0 -10 -5 -11 -18 -5 -9 6 -16 18 -14 27
2 10 4 21 4 26 1 10 19 9 26 -3z m35 -34 c0 -2 -7 -7 -16 -10 -8 -3 -12 -2 -9
4 6 10 25 14 25 6z m164 -32 c4 -10 1 -14 -6 -12 -15 5 -23 28 -10 28 5 0 13
-7 16 -16z m-184 -7 c0 -4 3 -6 8 -3 4 2 15 -2 25 -9 12 -8 14 -15 7 -20 -5
-3 -8 -10 -5 -15 3 -5 -4 -8 -15 -7 -25 2 -25 6 -2 23 16 13 16 14 0 8 -11 -4
-18 -1 -18 7 0 7 -3 9 -7 6 -3 -4 -13 -1 -21 6 -13 10 -14 9 -7 -2 5 -10 4
-12 -4 -7 -6 4 -9 11 -6 16 7 11 45 9 45 -3z m97 0 c0 -8 -6 -14 -14 -14 -17
0 -17 14 0 20 6 3 12 6 13 6 0 1 1 -5 1 -12z m58 -16 c5 1 14 -6 20 -16 5 -10
24 -31 40 -46 21 -19 27 -31 20 -38 -8 -8 -16 -5 -28 9 -9 11 -13 20 -9 20 4
0 -8 9 -25 20 -18 11 -33 27 -33 37 0 9 -3 13 -7 9 -5 -4 -8 -18 -8 -29 0 -17
-6 -22 -27 -22 -29 -1 -36 9 -18 20 6 4 18 1 26 -6 12 -10 13 -9 8 5 -3 9 -12
16 -20 16 -8 0 -14 5 -14 11 0 5 4 8 9 5 4 -3 17 4 27 15 16 18 19 18 24 4 3
-9 10 -16 15 -14z m-87 -5 c7 -16 7 -27 0 -34 -13 -13 -1 -33 16 -26 8 3 17 0
22 -7 5 -9 2 -11 -9 -6 -16 6 -27 -10 -20 -30 3 -7 9 -13 15 -13 6 0 6 6 -2
15 -8 9 -9 15 -2 15 24 0 22 -23 -3 -46 -24 -23 -27 -23 -23 -6 3 11 2 26 -3
33 -4 8 -3 20 4 28 9 12 9 13 0 7 -7 -4 -19 -4 -25 1 -19 11 -38 12 -38 2 0
-17 -2 -24 -12 -42 -14 -28 -18 -56 -7 -62 5 -4 7 -11 4 -16 -4 -5 -1 -9 6 -9
7 0 9 -3 6 -7 -4 -3 -3 -11 3 -17 6 -8 2 -16 -11 -24 -10 -7 -19 -9 -18 -5 1
5 0 11 -1 16 -1 4 -4 16 -5 27 -1 11 -3 21 -5 23 -7 7 -6 88 1 92 4 3 6 12 3
20 -4 8 -9 13 -13 11 -4 -3 -7 11 -7 29 0 26 4 33 18 32 10 -1 18 -5 18 -10 0
-4 4 -6 9 -3 5 3 8 -2 7 -10 -1 -19 31 -27 53 -14 12 7 13 9 2 10 -10 0 -11 3
-2 13 8 10 7 17 -1 25 -8 8 -8 12 -2 12 6 0 16 -11 22 -24z m-22 -97 c8 -17
11 -28 6 -25 -6 3 -13 -1 -16 -10 -3 -8 -2 -13 3 -10 5 3 11 -1 15 -9 7 -19
-8 -19 -27 0 -13 13 -16 12 -22 -3 -3 -9 -1 -18 4 -20 6 -2 9 -8 6 -13 -4 -5
0 -6 7 -4 17 7 22 -36 5 -47 -9 -6 -9 -8 0 -8 7 0 17 -9 22 -19 8 -15 7 -20
-5 -25 -12 -4 -15 -2 -11 9 7 18 -9 30 -19 14 -5 -8 -3 -9 7 -4 8 5 12 6 9 2
-3 -3 -9 -7 -14 -9 -12 -4 -17 30 -5 38 6 3 5 11 -2 20 -6 8 -8 14 -5 14 4 0
1 10 -6 23 -15 27 -19 49 -8 42 5 -3 8 3 8 12 -1 26 5 47 17 55 14 11 13 11
31 -23z m429 -17 c-3 -3 -11 0 -18 7 -9 10 -8 11 6 5 10 -3 15 -9 12 -12z
m-10 -14 c5 4 5 1 1 -6 -6 -10 -11 -10 -22 -1 -8 6 -14 14 -14 16 0 3 6 0 13
-6 8 -6 18 -7 22 -3z m-334 -14 c8 -9 14 -30 15 -45 1 -25 -1 -27 -17 -18 -11
5 -19 14 -19 20 0 6 5 7 12 3 6 -4 8 -3 4 4 -3 5 -2 12 4 14 6 2 0 9 -12 17
-21 13 -22 13 -10 -2 12 -14 11 -16 -7 -14 -33 2 -24 32 10 36 4 1 13 -6 20
-15z m189 -30 c0 -8 4 -13 8 -10 5 3 19 -6 30 -19 12 -14 19 -25 15 -25 -4 0
3 -7 15 -16 13 -9 21 -22 18 -29 -3 -8 2 -11 15 -8 20 6 24 -4 11 -25 -6 -9
-14 -6 -31 12 -13 14 -20 29 -16 36 3 6 3 9 -2 8 -12 -4 -83 64 -77 73 2 4 -6
6 -18 4 -22 -4 -22 -4 -4 10 21 16 36 11 36 -11z m-257 1 c8 4 14 0 14 -10 0
-8 -2 -15 -4 -15 -9 0 -63 31 -63 36 0 2 9 0 19 -6 11 -5 26 -8 34 -5z m62
-43 c18 -8 26 -8 35 3 10 12 17 9 43 -16 26 -23 29 -31 18 -38 -8 -5 -20 -7
-27 -4 -6 2 -15 -1 -19 -7 -5 -8 -13 -6 -28 7 -11 10 -17 12 -13 6 4 -7 2 -13
-3 -13 -13 0 -15 27 -2 34 5 3 14 -1 21 -9 7 -8 18 -15 24 -15 6 0 4 4 -4 10
-8 5 -11 12 -7 16 3 4 13 1 22 -6 10 -8 15 -9 15 -1 0 12 -2 13 -43 15 -16 1
-31 -2 -33 -6 -3 -4 -10 -8 -16 -8 -6 0 -5 7 3 18 13 15 12 16 -3 3 -14 -10
-21 -11 -31 -2 -8 6 -18 7 -22 3 -5 -4 -5 -2 -2 5 4 6 1 14 -5 17 -7 2 -2 4
12 3 13 -1 25 4 26 11 3 24 7 27 11 6 2 -12 15 -26 28 -32z m426 -5 c-8 -8
-14 -8 -23 2 -11 10 -10 11 5 6 12 -5 17 -2 18 11 0 12 2 14 6 6 3 -8 0 -19
-6 -25z m-437 -54 c4 -8 13 -13 20 -10 10 4 14 -1 13 -14 -2 -25 -12 -24 -31
3 -9 12 -16 19 -16 15 0 -5 -5 -5 -11 -1 -8 5 -8 9 1 14 8 5 5 9 -9 13 -18 4
-19 2 -10 -15 6 -10 17 -22 25 -25 7 -3 11 -10 7 -16 -4 -6 -1 -7 6 -2 8 4 7
-4 -3 -24 -9 -17 -14 -31 -11 -31 3 0 1 -9 -6 -21 -8 -16 -8 -24 1 -33 8 -8
10 -7 5 6 -6 15 -3 16 24 5 32 -12 41 -26 19 -28 -7 -1 -23 -3 -35 -4 -15 -1
-24 3 -25 14 0 9 -2 21 -2 28 -1 6 -5 15 -9 19 -4 4 -7 12 -7 18 0 6 5 4 11
-4 8 -12 9 -10 4 9 -5 15 -3 21 3 17 6 -3 13 -2 17 3 3 5 -3 14 -12 20 -10 6
-14 11 -10 11 5 0 0 15 -11 34 -14 24 -17 36 -9 39 15 5 54 -20 61 -40z m696
-33 c0 -12 -60 -41 -71 -34 -5 3 -9 14 -9 24 0 14 9 20 33 22 36 4 47 1 47
-12z m-745 0 c-3 -5 -14 -7 -24 -5 -10 2 -24 -1 -32 -7 -11 -8 -10 -9 5 -4 14
5 17 2 12 -9 -4 -11 -2 -14 6 -9 7 5 8 3 4 -5 -6 -9 -13 -8 -27 5 -13 12 -16
21 -9 29 11 14 73 18 65 5z m5 -21 c0 -4 -9 -17 -21 -30 -16 -20 -18 -20 -11
-4 5 11 8 25 5 31 -2 6 3 11 12 11 8 0 15 -4 15 -8z m54 -54 c-7 -16 -24 -21
-24 -6 0 8 7 13 27 20 1 1 0 -6 -3 -14z m16 -107 c0 -6 -7 -5 -15 2 -8 7 -15
17 -15 22 0 6 7 5 15 -2 8 -7 15 -17 15 -22z"/>
<path d="M913 1515 c0 -8 4 -12 9 -9 5 3 6 10 3 15 -9 13 -12 11 -12 -6z"/>
<path d="M957 1493 c6 -16 5 -17 -13 -3 -15 11 -16 11 -7 0 7 -8 20 -15 28
-16 12 -2 13 2 5 17 -13 24 -22 25 -13 2z"/>
<path d="M835 1480 c27 -12 43 -12 25 0 -8 5 -22 9 -30 9 -10 0 -8 -3 5 -9z"/>
<path d="M913 1483 c4 -3 3 -11 -3 -17 -6 -8 -3 -12 10 -12 15 0 16 4 9 18 -5
10 -13 18 -16 18 -3 0 -3 -3 0 -7z"/>
<path d="M815 1439 c-11 -16 -1 -19 13 -3 7 8 8 14 3 14 -5 0 -13 -5 -16 -11z"/>
<path d="M869 1429 c-9 -17 -8 -20 2 -14 9 6 10 3 5 -11 -4 -10 -4 -15 0 -11
4 4 12 2 19 -3 8 -7 12 -5 12 5 0 8 -5 11 -10 8 -6 -4 -8 1 -4 11 5 11 3 15
-5 10 -8 -5 -9 -2 -5 9 9 24 0 21 -14 -4z"/>
<path d="M830 1421 c0 -6 4 -13 10 -16 6 -3 7 1 4 9 -7 18 -14 21 -14 7z"/>
<path d="M811 1398 c-1 -22 9 -28 34 -17 19 9 19 9 -2 5 -14 -2 -23 2 -26 13
-4 14 -5 14 -6 -1z"/>
<path d="M844 1362 c4 -3 14 -7 22 -8 9 -1 13 0 10 4 -4 3 -14 7 -22 8 -9 1
-13 0 -10 -4z"/>
<path d="M544 1481 c7 -10 3 -12 -15 -6 -27 8 -24 3 7 -13 18 -9 24 -8 35 6 7
9 9 14 5 10 -5 -4 -16 -2 -24 5 -13 10 -14 9 -8 -2z"/>
<path d="M435 1270 c-3 -5 -1 -10 4 -10 6 0 11 5 11 10 0 6 -2 10 -4 10 -3 0
-8 -4 -11 -10z"/>
<path d="M620 1181 c0 -6 4 -13 10 -16 6 -3 7 1 4 9 -7 18 -14 21 -14 7z"/>
<path d="M427 1157 c-5 -12 14 -47 26 -47 2 0 7 7 10 14 4 10 1 13 -8 10 -10
-4 -13 0 -10 15 4 23 -10 29 -18 8z"/>
<path d="M437 1093 c-10 -9 -9 -23 1 -23 5 0 9 7 9 15 0 17 -1 18 -10 8z"/>
<path d="M481 1081 c-9 -16 -8 -19 6 -17 20 3 28 21 14 30 -5 4 -15 -2 -20
-13z"/>
<path d="M1215 860 c3 -5 8 -10 11 -10 2 0 4 5 4 10 0 6 -5 10 -11 10 -5 0 -7
-4 -4 -10z"/>
<path d="M750 1740 c0 -5 5 -10 10 -10 6 0 10 5 10 10 0 6 -4 10 -10 10 -5 0
-10 -4 -10 -10z"/>
<path d="M1135 1740 c-3 -5 -1 -10 4 -10 6 0 11 5 11 10 0 6 -2 10 -4 10 -3 0
-8 -4 -11 -10z"/>
<path d="M708 1723 c6 -2 18 -2 25 0 6 3 1 5 -13 5 -14 0 -19 -2 -12 -5z"/>
<path d="M786 1722 c5 -4 12 -11 15 -15 3 -5 9 -2 12 5 3 9 -3 14 -15 15 -11
1 -16 -1 -12 -5z"/>
<path d="M845 1719 c-4 -6 -5 -12 -2 -15 2 -3 7 2 10 11 7 17 1 20 -8 4z"/>
<path d="M1006 1718 c3 -5 10 -6 15 -3 13 9 11 12 -6 12 -8 0 -12 -4 -9 -9z"/>
<path d="M760 1712 c0 -7 -7 -9 -17 -5 -15 5 -16 3 -5 -8 9 -10 15 -10 24 -1
6 6 9 15 5 19 -4 3 -7 1 -7 -5z"/>
<path d="M891 1701 c-8 -5 -16 -17 -17 -26 -1 -9 1 -14 4 -10 4 4 6 9 4 12 -2
3 5 11 15 19 20 15 16 19 -6 5z"/>
<path d="M1130 1700 c0 -5 5 -10 11 -10 5 0 7 5 4 10 -3 6 -8 10 -11 10 -2 0
-4 -4 -4 -10z"/>
<path d="M1015 1689 c-4 -6 -5 -12 -2 -15 2 -3 7 2 10 11 7 17 1 20 -8 4z"/>
<path d="M702 1670 c-7 -11 -10 -20 -6 -20 7 0 34 27 34 34 0 13 -16 5 -28
-14z"/>
<path d="M790 1680 c0 -6 7 -13 15 -16 8 -4 12 -11 8 -17 -3 -6 -1 -7 5 -3 15
9 15 9 -8 29 -11 9 -20 12 -20 7z"/>
<path d="M826 1675 c10 -8 23 -15 28 -15 6 0 1 7 -10 15 -10 8 -23 15 -28 15
-6 0 -1 -7 10 -15z"/>
<path d="M735 1661 c-3 -6 -3 -11 2 -12 4 -1 -3 -5 -17 -10 l-25 -8 25 2 c14
1 24 8 23 15 -2 6 6 12 17 12 11 0 19 -5 18 -11 -2 -6 4 -14 12 -16 12 -4 12
-3 2 5 -8 5 -12 13 -10 18 4 13 -39 17 -47 5z"/>
<path d="M1176 1662 c-3 -4 4 -9 15 -9 23 -2 25 3 4 10 -8 4 -16 3 -19 -1z"/>
<path d="M740 1610 c-6 -11 -9 -24 -6 -29 7 -11 46 -8 45 4 0 5 8 13 18 17 16
7 16 8 -2 5 -11 -2 -19 -8 -18 -14 2 -7 -6 -11 -17 -10 -13 1 -19 6 -15 15 3
7 5 16 5 18 0 3 5 2 10 -1 6 -3 10 -1 10 4 0 18 -19 12 -30 -9z"/>
<path d="M816 1617 c3 -10 9 -15 12 -12 3 3 0 11 -7 18 -10 9 -11 8 -5 -6z"/>
<path d="M660 1590 c-7 -10 -17 -17 -20 -15 -4 2 -7 -14 -7 -36 0 -30 3 -37 9
-25 5 9 7 20 4 25 -3 5 4 21 15 35 12 15 19 29 17 31 -2 2 -10 -4 -18 -15z"/>
<path d="M694 1576 c4 -13 2 -17 -8 -13 -14 6 -32 -21 -21 -31 3 -3 5 0 5 6 0
7 6 12 14 12 21 0 30 20 16 33 -10 9 -12 8 -6 -7z"/>
<path d="M705 1540 c-3 -6 1 -7 9 -4 18 7 21 14 7 14 -6 0 -13 -4 -16 -10z"/>
<path d="M1141 1424 c0 -11 3 -14 6 -6 3 7 2 16 -1 19 -3 4 -6 -2 -5 -13z"/>
<path d="M525 1370 c-4 -6 -3 -16 3 -22 6 -6 12 -6 17 2 4 6 3 16 -3 22 -6 6
-12 6 -17 -2z"/>
<path d="M483 1333 c4 -6 0 -13 -8 -17 -19 -7 -20 -23 -1 -23 18 0 28 34 14
44 -6 3 -8 1 -5 -4z"/>
<path d="M1115 1329 c-4 -6 -4 -13 -1 -16 3 -4 6 -1 6 6 0 7 5 9 12 5 7 -4 8
-3 4 4 -9 15 -13 15 -21 1z"/>
<path d="M594 1322 c3 -6 0 -14 -8 -19 -8 -5 -12 -14 -8 -20 5 -7 11 -3 19 13
8 17 8 26 1 31 -7 3 -8 1 -4 -5z"/>
<path d="M1215 1269 c-4 -6 -5 -12 -2 -15 2 -3 7 2 10 11 7 17 1 20 -8 4z"/>
<path d="M1095 1230 c3 -5 8 -10 11 -10 2 0 4 5 4 10 0 6 -5 10 -11 10 -5 0
-7 -4 -4 -10z"/>
<path d="M1188 1233 c7 -3 16 -2 19 1 4 3 -2 6 -13 5 -11 0 -14 -3 -6 -6z"/>
<path d="M700 1203 c0 -15 19 -37 26 -31 3 4 -1 14 -10 23 -9 9 -16 13 -16 8z"/>
<path d="M740 1160 c0 -5 5 -10 11 -10 5 0 7 -5 3 -12 -4 -7 -3 -8 5 -4 9 6 9
11 0 22 -14 17 -19 18 -19 4z"/>
<path d="M1190 1155 c-10 -12 -10 -15 4 -15 9 0 16 7 16 15 0 8 -2 15 -4 15
-2 0 -9 -7 -16 -15z"/>
<path d="M720 1141 c0 -6 4 -13 10 -16 6 -3 7 1 4 9 -7 18 -14 21 -14 7z"/>
<path d="M1100 1140 c0 -6 7 -10 15 -10 8 0 15 2 15 4 0 2 -7 6 -15 10 -8 3
-15 1 -15 -4z"/>
<path d="M760 1120 c-9 -6 -10 -10 -3 -10 6 0 15 5 18 10 8 12 4 12 -15 0z"/>
<path d="M620 1099 c0 -5 5 -7 10 -4 6 3 10 8 10 11 0 2 -4 4 -10 4 -5 0 -10
-5 -10 -11z"/>
<path d="M815 1071 c-6 -11 13 -26 22 -17 4 3 1 6 -6 6 -7 0 -9 5 -6 10 3 6 4
10 1 10 -3 0 -7 -4 -11 -9z"/>
<path d="M1201 1066 c-10 -11 -9 -14 1 -12 14 2 23 15 15 22 -2 2 -10 -2 -16
-10z"/>
<path d="M1120 1040 c0 -5 4 -10 9 -10 6 0 13 5 16 10 3 6 -1 10 -9 10 -9 0
-16 -4 -16 -10z"/>
<path d="M868 1022 c8 -5 13 -13 12 -18 -1 -5 4 -10 12 -12 11 -3 11 -2 0 6
-8 5 -13 13 -12 18 1 5 -4 10 -12 12 -11 3 -11 2 0 -6z"/>
<path d="M670 1005 c0 -8 4 -15 10 -15 5 0 7 7 4 15 -4 8 -8 15 -10 15 -2 0
-4 -7 -4 -15z"/>
<path d="M906 962 c-3 -5 1 -9 9 -9 8 0 12 4 9 9 -3 4 -7 8 -9 8 -2 0 -6 -4
-9 -8z"/>
<path d="M1171 954 c0 -11 3 -14 6 -6 3 7 2 16 -1 19 -3 4 -6 -2 -5 -13z"/>
<path d="M712 905 c-15 -32 -15 -35 0 -35 6 0 8 3 5 6 -3 4 -2 15 4 26 6 11 9
22 6 24 -2 2 -9 -7 -15 -21z"/>
<path d="M790 919 c0 -5 5 -7 10 -4 6 3 10 8 10 11 0 2 -4 4 -10 4 -5 0 -10
-5 -10 -11z"/>
<path d="M735 901 c-11 -19 4 -46 26 -46 19 0 24 6 24 25 0 19 -6 25 -23 26
-12 1 -24 -2 -27 -5z m42 -20 c1 -9 -6 -17 -16 -18 -9 -1 -17 6 -18 16 -1 9 6
17 16 18 9 1 17 -6 18 -16z"/>
<path d="M803 895 c-3 -9 -3 -19 1 -22 3 -4 6 1 6 11 0 10 5 14 12 10 7 -4 8
-3 4 4 -10 16 -15 15 -23 -3z"/>
<path d="M944 902 c4 -3 14 -7 22 -8 9 -1 13 0 10 4 -4 3 -14 7 -22 8 -9 1
-13 0 -10 -4z"/>
<path d="M642 869 c-19 -30 -8 -34 12 -4 9 14 13 25 9 25 -5 0 -14 -9 -21 -21z"/>
<path d="M657 848 c-29 -33 -32 -44 -6 -25 14 10 45 58 37 57 -2 -1 -15 -15
-31 -32z"/>
<path d="M814 855 c-4 -8 -9 -13 -13 -11 -4 3 -8 -5 -8 -17 -2 -18 0 -19 8 -7
20 31 30 50 24 50 -3 0 -8 -7 -11 -15z"/>
<path d="M690 847 c0 -16 -46 -58 -54 -50 -3 4 -6 1 -6 -5 0 -20 18 -14 45 15
22 25 33 53 20 53 -3 0 -5 -6 -5 -13z"/>
<path d="M713 839 c-1 -10 5 -19 12 -19 9 0 12 -6 9 -17 -5 -15 -4 -16 5 -3 8
11 7 18 -4 26 -8 6 -12 13 -9 16 3 4 1 8 -3 11 -5 3 -10 -3 -10 -14z"/>
<path d="M835 851 c-3 -5 0 -13 6 -17 7 -4 9 -3 5 4 -3 5 0 13 6 15 9 4 10 6
1 6 -6 1 -14 -3 -18 -8z"/>
<path d="M758 833 c7 -3 16 -2 19 1 4 3 -2 6 -13 5 -11 0 -14 -3 -6 -6z"/>
<path d="M819 828 c-11 -40 1 -73 17 -47 4 8 3 9 -4 5 -7 -4 -12 -3 -12 3 0 5
6 12 13 14 9 4 9 6 -1 6 -7 1 -10 6 -7 11 3 6 4 10 1 10 -3 0 -6 -1 -7 -2z"/>
<path d="M694 802 c3 -5 -9 -16 -25 -26 -17 -10 -28 -20 -25 -23 6 -6 66 38
66 49 0 4 -5 8 -11 8 -5 0 -8 -4 -5 -8z"/>
<path d="M755 799 c-11 -16 -1 -19 13 -3 7 8 8 14 3 14 -5 0 -13 -5 -16 -11z"/>
<path d="M870 789 c0 -6 -5 -7 -12 -3 -6 4 -8 3 -5 -4 4 -5 16 -8 27 -5 24 6
25 9 5 17 -8 3 -15 1 -15 -5z"/>
<path d="M774 782 c3 -5 0 -13 -6 -15 -9 -4 -10 -6 -1 -6 17 -1 25 16 12 25
-7 4 -9 3 -5 -4z"/>
<path d="M1268 783 c7 -3 16 -2 19 1 4 3 -2 6 -13 5 -11 0 -14 -3 -6 -6z"/>
<path d="M710 772 c0 -15 11 -21 27 -15 12 5 12 7 1 14 -17 11 -28 11 -28 1z"/>
<path d="M677 752 c-19 -20 -22 -42 -8 -42 6 0 13 5 17 12 4 7 3 8 -4 4 -7 -4
-12 -3 -12 2 0 16 13 22 27 11 9 -9 13 -8 13 0 0 6 -5 11 -11 11 -5 0 -7 5 -4
10 10 16 -1 11 -18 -8z"/>
<path d="M794 759 c-4 -7 -3 -9 4 -5 5 3 13 0 15 -6 4 -9 6 -10 6 -1 1 17 -16
25 -25 12z"/>
<path d="M1106 762 c-3 -5 1 -9 9 -9 8 0 12 4 9 9 -3 4 -7 8 -9 8 -2 0 -6 -4
-9 -8z"/>
<path d="M750 741 c8 -5 18 -7 23 -4 5 3 6 -4 3 -15 -8 -23 8 -39 20 -21 4 8
3 9 -4 5 -8 -5 -11 0 -9 15 1 16 -4 22 -23 25 -18 3 -21 2 -10 -5z"/>
<path d="M830 740 c0 -5 7 -7 15 -4 8 4 15 8 15 10 0 2 -7 4 -15 4 -8 0 -15
-4 -15 -10z"/>
<path d="M721 728 c-1 -20 14 -24 25 -6 4 6 3 8 -4 4 -5 -3 -13 0 -15 6 -3 8
-6 6 -6 -4z"/>
<path d="M970 736 c0 -2 8 -10 18 -17 15 -13 16 -12 3 4 -13 16 -21 21 -21 13z"/>
<path d="M860 720 c8 -5 20 -10 25 -10 6 0 3 5 -5 10 -8 5 -19 10 -25 10 -5 0
-3 -5 5 -10z"/>
<path d="M816 711 c-3 -5 5 -16 19 -25 14 -9 25 -12 25 -7 0 5 -9 13 -20 16
-11 4 -18 11 -15 16 4 5 4 9 1 9 -3 0 -7 -4 -10 -9z"/>
<path d="M741 691 c-6 -10 -7 -22 -3 -26 4 -4 -4 -4 -18 -1 -22 6 -23 5 -7 -5
14 -8 22 -8 30 0 6 6 8 11 4 11 -4 0 -3 9 3 20 6 11 8 20 6 20 -3 0 -10 -8
-15 -19z"/>
<path d="M1135 700 c-3 -5 -1 -10 4 -10 6 0 11 5 11 10 0 6 -2 10 -4 10 -3 0
-8 -4 -11 -10z"/>
<path d="M894 681 c0 -12 6 -17 18 -13 10 2 18 9 18 15 0 6 -3 7 -7 4 -3 -4
-11 -3 -17 3 -8 6 -12 3 -12 -9z"/>
<path d="M761 674 c0 -11 3 -14 6 -6 3 7 2 16 -1 19 -3 4 -6 -2 -5 -13z"/>
<path d="M797 683 c-4 -3 -7 -11 -7 -17 0 -6 5 -5 12 2 6 6 9 14 7 17 -3 3 -9
2 -12 -2z"/>
<path d="M815 660 c-3 -6 1 -7 9 -4 18 7 21 14 7 14 -6 0 -13 -4 -16 -10z"/>
<path d="M683 650 c2 -8 -5 -23 -15 -34 -10 -11 -18 -24 -18 -29 0 -5 12 6 27
23 l26 32 13 -24 c7 -12 13 -18 14 -12 0 5 -7 19 -15 30 -8 10 -15 15 -15 9 0
-5 -5 -3 -11 5 -9 13 -10 13 -6 0z"/>
<path d="M780 640 c8 -5 20 -10 25 -10 6 0 3 5 -5 10 -8 5 -19 10 -25 10 -5 0
-3 -5 5 -10z"/>
<path d="M820 630 c-6 -11 -8 -20 -6 -20 3 0 10 9 16 20 6 11 8 20 6 20 -3 0
-10 -9 -16 -20z"/>
<path d="M861 636 c-9 -11 -9 -16 0 -22 8 -4 9 -3 5 4 -7 11 6 17 27 13 5 -1
6 3 2 9 -9 14 -20 13 -34 -4z"/>
<path d="M738 628 c6 -6 18 -8 28 -6 14 3 12 5 -9 10 -19 3 -25 2 -19 -4z"/>
<path d="M915 630 c-3 -5 -4 -10 -1 -10 3 0 2 -10 -3 -23 -7 -19 -6 -23 10
-23 12 0 15 4 9 11 -5 6 -8 21 -5 33 4 23 0 28 -10 12z"/>
<path d="M956 618 c3 -5 10 -6 15 -3 13 9 11 12 -6 12 -8 0 -12 -4 -9 -9z"/>
<path d="M690 600 c0 -5 5 -10 10 -10 6 0 10 5 10 10 0 6 -4 10 -10 10 -5 0
-10 -4 -10 -10z"/>
<path d="M772 593 c3 -18 44 -28 53 -13 4 6 -1 7 -11 3 -13 -5 -15 -3 -9 8 7
11 5 11 -10 -1 -17 -14 -18 -13 -12 3 3 9 2 17 -4 17 -6 0 -9 -7 -7 -17z"/>
<path d="M840 600 c8 -5 20 -10 25 -10 6 0 3 5 -5 10 -8 5 -19 10 -25 10 -5 0
-3 -5 5 -10z"/>
<path d="M947 599 c7 -7 15 -10 18 -7 3 3 -2 9 -12 12 -14 6 -15 5 -6 -5z"/>
<path d="M986 602 c-3 -5 1 -9 9 -9 8 0 12 4 9 9 -3 4 -7 8 -9 8 -2 0 -6 -4
-9 -8z"/>
<path d="M670 581 c0 -6 4 -11 10 -11 5 0 18 -10 30 -22 11 -12 20 -18 20 -13
0 5 7 0 16 -11 14 -18 15 -18 4 4 -6 12 -15 20 -19 17 -5 -3 -11 2 -14 9 -10
26 18 24 35 -3 16 -23 17 -24 15 -4 0 12 -4 20 -8 17 -4 -2 -10 3 -13 11 -5
13 -10 14 -26 5 -16 -9 -25 -8 -36 1 -10 8 -14 8 -14 0z"/>
<path d="M1030 578 c0 -4 4 -8 9 -8 6 0 12 4 15 8 3 5 -1 9 -9 9 -8 0 -15 -4
-15 -9z"/>
<path d="M833 563 c-4 -10 -14 -13 -32 -8 -21 4 -23 3 -11 -5 11 -8 12 -13 3
-16 -7 -3 -9 -12 -6 -21 4 -11 3 -14 -6 -9 -6 4 -10 4 -9 -1 1 -4 -3 -35 -11
-68 -14 -67 -12 -194 3 -160 5 11 17 40 27 64 11 24 22 42 24 39 3 -3 15 -38
26 -79 23 -83 33 -99 62 -99 l20 0 -20 22 c-12 13 -29 52 -38 88 -24 90 -35
99 -70 63 l-27 -28 6 53 c9 68 15 82 35 82 14 0 14 2 1 10 -13 9 -13 11 0 20
8 5 11 10 5 10 -5 0 1 7 15 15 17 9 29 10 37 3 15 -12 34 -2 27 16 -8 20 -54
27 -61 9z"/>
<path d="M969 563 c-13 -16 -12 -17 4 -4 16 13 21 21 13 21 -2 0 -10 -8 -17
-17z"/>
<path d="M437 551 c-20 -8 -37 -21 -37 -28 0 -20 -42 -41 -95 -48 -27 -3 -62
-8 -77 -11 -20 -4 -28 -1 -33 14 -6 22 -31 36 -46 26 -5 -3 1 -14 13 -25 l23
-19 -26 -23 c-59 -53 -74 -107 -30 -107 23 0 65 52 74 90 5 19 13 26 34 28 28
2 28 2 29 -61 0 -34 2 -89 4 -122 4 -70 -2 -85 -35 -85 -18 0 -26 7 -31 24 -8
32 3 48 27 41 13 -4 19 -2 19 9 0 22 -33 20 -53 -2 -20 -22 -22 -63 -5 -80 20
-20 57 -14 84 13 24 24 25 30 19 93 -17 154 -13 176 27 184 13 3 32 9 42 13
16 7 18 5 13 -8 -5 -14 -18 -94 -19 -117 -2 -39 4 -80 10 -80 5 0 15 21 23 47
8 26 19 48 26 50 6 3 18 -20 27 -54 31 -108 46 -126 89 -104 12 6 15 10 7 10
-41 -3 -49 10 -70 104 -17 75 -30 85 -64 51 l-26 -27 0 27 c0 44 22 119 43
149 15 22 25 27 43 23 12 -3 25 -2 28 3 11 17 -20 18 -57 2z m-257 -136 c0
-27 -24 -66 -38 -63 -24 5 -24 22 -2 51 24 30 40 35 40 12z"/>
<path d="M993 552 c-8 -14 -8 -19 1 -19 7 0 13 9 13 19 1 10 1 18 0 18 -1 0
-7 -8 -14 -18z"/>
<path d="M1462 525 c-6 -14 -16 -26 -22 -26 -5 -1 -14 -3 -20 -4 -5 -1 -17 -3
-25 -4 -8 0 -15 -6 -15 -11 0 -7 8 -6 23 1 12 7 23 12 25 11 14 -10 62 41 50
53 -3 3 -10 -6 -16 -20z"/>
<path d="M1030 536 c0 -2 8 -10 18 -17 15 -13 16 -12 3 4 -13 16 -21 21 -21
13z"/>
<path d="M885 523 c-28 -7 -39 -19 -24 -28 8 -6 10 -4 4 5 -6 10 -2 12 17 8
16 -3 25 0 25 9 0 7 -1 12 -1 12 -1 -1 -10 -3 -21 -6z"/>
<path d="M1209 503 c-24 -15 -56 -56 -58 -75 -1 -5 -1 -9 -2 -10 -5 -22 -2
-127 6 -171 l10 -58 35 23 c45 30 76 89 60 118 -15 27 -27 25 -60 -10 l-29
-31 -3 33 c-4 40 14 125 32 154 11 18 21 21 53 17 29 -3 38 -1 35 9 -7 19 -49
20 -79 1z m29 -207 c4 -31 -23 -79 -41 -73 -14 4 -11 38 5 80 13 34 32 30 36
-7z"/>
<path d="M833 491 c0 -11 5 -18 9 -15 4 3 5 11 1 19 -7 21 -12 19 -10 -4z"/>
<path d="M945 500 c-3 -6 1 -7 9 -4 18 7 21 14 7 14 -6 0 -13 -4 -16 -10z"/>
<path d="M991 493 c7 -12 15 -20 18 -17 3 2 -3 12 -13 22 -17 16 -18 16 -5 -5z"/>
<path d="M1130 500 c0 -5 5 -10 11 -10 5 0 7 5 4 10 -3 6 -8 10 -11 10 -2 0
-4 -4 -4 -10z"/>
<path d="M895 479 c-4 -6 -4 -13 -1 -16 3 -4 6 -1 6 6 0 7 5 9 10 6 6 -4 8
-10 6 -14 -3 -4 1 -8 9 -8 13 0 12 4 -2 19 -19 21 -20 21 -28 7z"/>
<path d="M1114 462 c4 -3 14 -7 22 -8 9 -1 13 0 10 4 -4 3 -14 7 -22 8 -9 1
-13 0 -10 -4z"/>
<path d="M975 450 c-4 -6 -12 -7 -18 -4 -7 4 -8 3 -4 -1 13 -15 34 -14 34 1 0
17 -4 18 -12 4z"/>
<path d="M650 420 c-22 -22 -19 -33 21 -92 27 -38 25 -68 -5 -68 -18 0 -26 6
-29 23 -3 19 -4 20 -11 5 -23 -52 41 -64 77 -16 l20 27 -36 55 c-20 29 -33 57
-30 60 13 12 33 5 33 -11 0 -16 1 -16 16 -1 9 9 13 21 10 27 -11 17 -44 13
-66 -9z"/>
<path d="M1015 420 c3 -5 8 -10 11 -10 2 0 4 5 4 10 0 6 -5 10 -11 10 -5 0 -7
-4 -4 -10z"/>
<path d="M1701 389 c-14 -14 -21 -30 -19 -47 3 -27 9 -29 53 -21 19 4 20 -1
18 -60 -2 -39 -10 -80 -22 -104 l-19 -39 20 19 c32 28 40 60 44 171 l5 102
-29 0 c-15 0 -38 -9 -51 -21z m47 -30 c-2 -16 -10 -24 -23 -24 -26 0 -32 35
-9 52 22 16 37 4 32 -28z"/>
<path d="M1490 375 c-16 -30 -26 -31 -40 -5 -6 12 -21 20 -35 20 l-24 0 24
-25 c30 -29 31 -45 4 -79 -12 -16 -16 -26 -8 -26 6 0 18 8 25 17 11 17 14 16
34 -10 21 -27 50 -37 50 -17 0 6 -4 10 -9 10 -5 0 -15 14 -24 32 -15 31 -15
33 15 70 20 25 25 38 16 38 -8 0 -21 -11 -28 -25z"/>
<path d="M537 379 c-39 -23 -43 -93 -5 -105 21 -6 78 13 78 27 0 5 -11 3 -23
-6 -22 -14 -25 -14 -42 5 -21 23 -21 22 20 36 39 12 49 54 13 54 -13 0 -31 -5
-41 -11z m43 -19 c0 -5 -5 -12 -11 -16 -14 -8 -33 11 -25 25 7 11 36 4 36 -9z"/>
<path d="M927 379 c-45 -26 -40 -107 6 -93 50 15 74 63 45 92 -15 15 -27 15
-51 1z m31 -22 c16 -18 3 -59 -17 -55 -17 3 -26 31 -17 54 7 17 20 18 34 1z"/>
<path d="M1032 370 c-24 -23 -29 -69 -10 -88 7 -7 23 -12 38 -11 l25 0 -22 16
c-28 19 -30 43 -5 43 23 0 56 35 47 49 -10 18 -50 13 -73 -9z m48 -16 c0 -14
-21 -19 -33 -7 -9 9 13 34 24 27 5 -3 9 -12 9 -20z"/>
<path d="M1310 368 c-24 -26 -26 -61 -4 -79 21 -17 65 9 79 46 8 22 6 29 -10
41 -26 19 -41 18 -65 -8z m45 -34 c0 -19 -6 -30 -16 -32 -20 -4 -33 37 -17 55
17 21 33 10 33 -23z"/>
<path d="M1529 363 c-8 -9 -9 -14 -3 -10 7 4 14 -2 18 -16 10 -37 7 -77 -6
-77 -9 0 -9 -3 1 -9 21 -14 39 -3 39 24 0 32 31 82 41 66 4 -7 8 -30 9 -52 2
-50 7 -59 33 -59 23 0 24 6 4 26 -8 9 -15 30 -15 49 0 68 -23 84 -58 40 l-20
-26 -7 31 c-7 34 -17 37 -36 13z"/>
<path d="M1096 294 c-5 -14 -4 -15 9 -4 17 14 19 20 6 20 -5 0 -12 -7 -15 -16z"/>
<path d="M1620 136 c0 -21 43 -41 67 -31 16 8 15 9 -7 13 -14 2 -33 11 -42 19
-16 15 -18 15 -18 -1z"/>
</g>
</svg>
